<?xml version="1.0" encoding="utf-8"?>
<!-- Generator: Adobe Illustrator 24.0.1, SVG Export Plug-In . SVG Version: 6.00 Build 0)  -->
<svg version="1.1" id="图层_1" xmlns="http://www.w3.org/2000/svg" xmlns:xlink="http://www.w3.org/1999/xlink" x="0px" y="0px"
	 viewBox="0 0 2000 2000" style="enable-background:new 0 0 2000 2000;" xml:space="preserve">
<style type="text/css">
	.st0{fill:#31A928;}
</style>
<g>
	<g>
		<path class="st0" d="M718.3,673.6c-0.2-0.1-0.2-0.2-0.3-0.2c-12.8-3.9-21.6-15.4-19.2-31.5c1.8-11.5,12.3-21.3,24.8-22.1
			c7.2-0.5,13.7,1.6,19.4,6.1c11.7,9.1,12.7,24.9,2.2,35.4c-5,5.1-10,10.2-15,15.3c-6.5,6.6-9.3,14.8-10.1,23.8
			c-0.1,0.7,0,1.2,0.9,1.2c3.6,0,7.3-0.1,10.9-0.1c0.7,0,0.9-0.2,1-1c0.6-3.9,1.7-7.6,3.5-11.1c2.6-5.1,6.4-9.4,10.4-13.5
			c3.3-3.3,6.6-6.5,9.7-9.9c8.7-9.9,10.6-21.4,6.1-33.4c-5.6-14.8-17-23-32.8-24.6c-8-0.8-15.7,0.7-22.8,4.6
			c-9.3,5.1-16,12.4-19.2,22.6c-2,6.2-1.9,12.6-0.9,19c2.1,14.2,10.9,22.9,23.4,28.7c0.3,0.1,0.9-0.2,1.1-0.4c0.8-1,1.4-2.1,2.2-3.1
			C715.2,677.4,716.7,675.6,718.3,673.6z"/>
		<path class="st0" d="M681.8,634.3c-5.6-15.5-20.7-25.8-37.5-25.9c-6.6,0-12.8,1.5-18.6,4.6c-16.5,8.9-24.6,28.5-18.8,46.2
			c6.3,19.4,29.2,32.2,50.5,24.3c15.4-5.7,24.4-17,26.2-33.6C684.2,644.6,683.6,639.4,681.8,634.3z M644.8,674.5
			c-16.4,0-28.1-13.5-28-27.5c0-14.6,12.9-27.5,28.1-27.3c12.3,0.2,27.6,10.1,27.6,27.4C672.4,662.5,659.6,674.5,644.8,674.5z"/>
		<path class="st0" d="M602,684.5c0-0.4,0.1-0.7,0.1-1c0-18.8,0.1-37.6-0.1-56.4c-0.1-5.9-2.9-10.8-8-14.1
			c-4.8-3.2-10.3-3.4-15.8-3.3c-0.2,0-0.7,0.5-0.7,0.8c-0.1,3-0.1,6,0,9c0,0.3,0.5,0.8,0.8,0.8c1.3,0.2,2.5,0.2,3.8,0.3
			c3.9,0.2,6.9,2.1,7.9,5.3c0.4,1.3,0.6,2.7,0.6,4c0,17.7,0,35.4,0,53c0,0.5,0,1,0,1.6C594.5,684.5,598.2,684.5,602,684.5z"/>
		<path class="st0" d="M720.3,713.2c0,4.8,0,9.4,0,14.1c4.2,0,8.3,0,12.4,0c0-4.7,0-9.4,0-14.1C728.5,713.2,724.4,713.2,720.3,713.2
			z"/>
		<path class="st0" d="M718.3,673.6c-1.6,1.9-3.1,3.8-4.6,5.7c-0.8,1-1.4,2.1-2.2,3.1c-0.2,0.3-0.8,0.5-1.1,0.4
			c-12.4-5.8-21.3-14.5-23.4-28.7c-1-6.4-1.1-12.8,0.9-19c3.2-10.2,10-17.5,19.2-22.6c7.1-3.9,14.8-5.4,22.8-4.6
			c15.8,1.6,27.2,9.8,32.8,24.6c4.5,12,2.6,23.5-6.1,33.4c-3.1,3.5-6.4,6.7-9.7,9.9c-4.1,4.1-7.8,8.3-10.4,13.5
			c-1.8,3.5-2.9,7.3-3.5,11.1c-0.1,0.7-0.4,1-1,1c-3.6,0-7.3,0-10.9,0.1c-0.9,0-0.9-0.5-0.9-1.2c0.8-9,3.6-17.2,10.1-23.8
			c5-5.1,10-10.2,15-15.3c10.5-10.5,9.5-26.3-2.2-35.4c-5.7-4.4-12.2-6.5-19.4-6.1c-12.6,0.8-23.1,10.6-24.8,22.1
			c-2.5,16,6.4,27.5,19.2,31.5C718.1,673.4,718.1,673.5,718.3,673.6z"/>
		<path class="st0" d="M681.8,634.3c-5.6-15.5-20.7-25.8-37.5-25.9c-6.6,0-12.8,1.5-18.6,4.6c-16.5,8.9-24.6,28.5-18.8,46.2
			c6.3,19.4,29.2,32.2,50.5,24.3c15.4-5.7,24.4-17,26.2-33.6C684.2,644.6,683.6,639.4,681.8,634.3z M644.8,674.5
			c-16.4,0-28.1-13.5-28-27.5c0-14.6,12.9-27.5,28.1-27.3c12.3,0.2,27.6,10.1,27.6,27.4C672.4,662.5,659.6,674.5,644.8,674.5z"/>
		<path class="st0" d="M602,684.5c-3.8,0-7.5,0-11.3,0c0-0.6,0-1.1,0-1.6c0-17.7,0-35.4,0-53c0-1.3-0.2-2.7-0.6-4
			c-1-3.2-4-5.1-7.9-5.3c-1.3-0.1-2.6-0.1-3.8-0.3c-0.3,0-0.8-0.5-0.8-0.8c-0.1-3-0.1-6,0-9c0-0.3,0.4-0.8,0.7-0.8
			c5.5-0.1,11,0.1,15.8,3.3c5.1,3.3,7.9,8.2,8,14.1c0.2,18.8,0.1,37.6,0.1,56.4C602,683.7,602,684,602,684.5z"/>
		<path class="st0" d="M720.3,713.2c4.1,0,8.2,0,12.4,0c0,4.7,0,9.3,0,14.1c-4.1,0-8.2,0-12.4,0C720.3,722.6,720.3,718,720.3,713.2z
			"/>
	</g>
	<path class="st0" d="M822.5,709.9l-6.2,15.4h-5.5l-3.2-8.3l-3.3,8.3h-5.6l-5.8-15.4h5.6l3.2,8.8l3.2-8.8h5.5l3.2,8.9l3.2-8.9H822.5
		z"/>
	<path class="st0" d="M855.3,709.9l-6.2,15.4h-5.5l-3.2-8.3l-3.3,8.3h-5.6l-5.8-15.4h5.6l3.2,8.8l3.2-8.8h5.5l3.2,8.9l3.2-8.9H855.3
		z"/>
	<path class="st0" d="M888.1,709.9l-6.2,15.4h-5.5l-3.2-8.3l-3.3,8.3h-5.6l-5.8-15.4h5.6l3.2,8.8l3.2-8.8h5.5l3.2,8.9l3.2-8.9H888.1
		z"/>
	<path class="st0" d="M894.4,719.3c0.9,0,1.6,0.3,2.2,0.9c0.6,0.6,0.9,1.3,0.9,2.2c0,0.8-0.3,1.5-0.9,2.2c-0.6,0.6-1.3,0.9-2.2,0.9
		c-0.9,0-1.6-0.3-2.2-0.9c-0.6-0.6-0.9-1.3-0.9-2.2c0-0.9,0.3-1.6,0.9-2.2C892.8,719.6,893.5,719.3,894.4,719.3z"/>
	<path class="st0" d="M914.9,723c0.1,0.5-0.2,0.9-0.6,1.1c-0.8,0.4-1.7,0.7-2.6,0.9c-0.7,0.2-1.3,0.3-1.9,0.4
		c-0.8,0.1-1.4-0.6-1.3-1.4c0.1-0.6,0.2-1.2,0.3-1.9c0.2-1.2,0.2-2.4,0.2-3.4v-10.6l-0.1-1.5c0-0.8-0.9-1.3-1.6-1l-1.6,0.7
		c-0.6,0.2-1.2,0-1.5-0.5c-0.4-0.7-0.6-1.4-0.9-2.1c-0.2-0.5,0.1-1.1,0.6-1.4l4.2-2.1c0.3-0.2,0.6-0.2,1-0.2c1,0,2.1,0.1,3.3,0.3
		c0.9,0.1,1.6,0.3,2.2,0.5c0.5,0.2,0.9,0.7,0.8,1.3C915.5,701.9,914.7,721.5,914.9,723z"/>
	<path class="st0" d="M933.6,699.9c6.6,0.2,10,4.4,10.2,12.6c-0.2,8.5-3.8,12.9-10.6,13c-6.5-0.3-9.9-4.5-10.1-12.8
		C923.4,704.5,926.9,700.2,933.6,699.9z M933.4,721.5c2.9-0.1,4.3-3.1,4.4-8.8c-0.1-5.7-1.5-8.6-4.3-8.7c-2.9,0.2-4.3,3.1-4.5,8.8
		C929.2,718.5,930.7,721.4,933.4,721.5z"/>
	<path class="st0" d="M957.5,699.9c6.6,0.2,10,4.4,10.2,12.6c-0.2,8.5-3.8,12.9-10.6,13c-6.5-0.3-9.9-4.5-10.1-12.8
		C947.3,704.5,950.8,700.2,957.5,699.9z M957.3,721.5c2.9-0.1,4.3-3.1,4.4-8.8c-0.1-5.7-1.5-8.6-4.3-8.7c-2.9,0.2-4.3,3.1-4.5,8.8
		C953.1,718.5,954.5,721.4,957.3,721.5z"/>
	<path class="st0" d="M989.4,722.5c-0.3,0.7-0.7,1.4-1.2,2.1c-0.5,0.6-1.1,1.1-1.6,1.3c-0.6-0.2-1.3-0.4-1.9-0.7s-1.2-0.6-1.6-1
		c-0.7,0.6-1.7,1-2.7,1.3c-1,0.3-2.1,0.4-3.3,0.4c-1.8,0-3.2-0.4-4.4-1.2c-1.1-0.8-1.7-1.9-1.7-3.3c0-3.8,3.8-5.9,11.5-6.1
		c-0.1-0.6-0.4-1.1-1-1.5s-1.4-0.7-2.4-0.7c-1,0-1.8,0-2.6,0.2c-0.8,0.1-1.7,0.4-2.7,0.7c-0.3-0.2-0.5-0.6-0.8-1.1
		c-0.3-0.5-0.5-1.1-0.7-1.7c0.9-0.4,2-0.7,3.4-1s2.7-0.3,4-0.3c1.3,0,2.4,0.1,3.2,0.3c0.8,0.2,1.5,0.5,2,0.9
		c0.7,0.5,1.3,1.1,1.9,1.8c0.5,0.7,0.8,1.8,0.8,3.3v5.6C988.1,722.1,988.8,722.3,989.4,722.5z M976.4,722.2c0.4,0.2,0.9,0.3,1.6,0.3
		c0.9,0,1.8-0.2,2.7-0.6c0.9-0.4,1.5-0.8,1.9-1.4l-0.1-2c-4.5,0.2-6.7,1-6.7,2.5C975.8,721.6,976,722,976.4,722.2z"/>
	<path class="st0" d="M1000.4,709.6c1.3,0,2.6,0.1,4,0.3c1.3,0.2,2.4,0.5,3.1,0.9c-0.5,1.2-1.1,2.1-2,2.9c-0.5-0.2-1.3-0.5-2.2-0.7
		c-1-0.2-2-0.3-3.1-0.3c-0.5,0-0.9,0.1-1.3,0.3c-0.4,0.2-0.5,0.5-0.5,0.8c0,0.4,0.2,0.7,0.7,0.9c0.5,0.2,1.2,0.5,2.2,0.9
		c1.1,0.4,2.1,0.7,2.9,1c1.1,0.5,2,1.1,2.7,1.9c0.7,0.8,1,1.6,1,2.4c0,2.9-2.5,4.3-7.6,4.3c-1.6,0-3-0.1-4.4-0.3s-2.4-0.5-3.2-0.9
		c0.1-0.5,0.4-1,0.7-1.5c0.3-0.5,0.7-0.9,1.1-1.3c1.5,0.7,3.2,1.1,5.1,1.1c2,0,3-0.4,3-1.3c0-0.3-0.5-0.7-1.4-1.2s-1.9-0.9-2.8-1.3
		c-1.5-0.5-2.7-1.2-3.8-2c-1.1-0.8-1.6-1.8-1.6-3c0-0.7,0.3-1.4,0.9-2c0.6-0.6,1.5-1.1,2.7-1.4
		C997.6,709.7,998.9,709.6,1000.4,709.6z"/>
	<path class="st0" d="M1022.9,724.9l-3.9-4.8c-0.5-0.6-1.6-0.2-1.5,0.6c0,1,0.1,1.9,0.2,2.6c0,0.3-0.1,0.7-0.4,0.9
		c-0.8,0.4-1.7,0.8-2.7,1c-0.8,0.2-1.5,0.3-2.2,0.4c-0.6,0-1-0.5-0.9-1.1c0.4-1.5,0.6-3.3,0.6-5.4v-11c0,0,0-0.1,0-0.1l-0.8-6.9
		c-0.1-0.5,0.3-1,0.9-1c1,0,2,0.1,3.1,0.2c1,0.1,1.9,0.3,2.5,0.5c0.4,0.1,0.6,0.5,0.5,0.9l-0.8,5.8c0,0,0,0.1,0,0.1v5.9h0.2l4.9-3.4
		c0.1-0.1,0.3-0.2,0.5-0.2h4.4c0.8,0,1.2,1.1,0.5,1.6l-5.1,3.4c-0.4,0.3-0.5,0.9-0.2,1.3l6.7,7.2c0.5,0.5,0.1,1.4-0.6,1.4h-5.1
		C1023.3,725.3,1023,725.1,1022.9,724.9z"/>
	<path class="st0" d="M1036.9,719.3c0.9,0,1.6,0.3,2.2,0.9c0.6,0.6,0.9,1.3,0.9,2.2c0,0.8-0.3,1.5-0.9,2.2s-1.3,0.9-2.2,0.9
		c-0.9,0-1.6-0.3-2.2-0.9c-0.6-0.6-0.9-1.3-0.9-2.2c0-0.9,0.3-1.6,0.9-2.2C1035.3,719.6,1036,719.3,1036.9,719.3z"/>
	<path class="st0" d="M1061.6,722.4c0.1,0.6,0.2,1.2,0.3,1.7c0.1,0.6-0.3,1.1-0.9,1.1c-0.6,0-1.2,0-1.9-0.2c-1.1-0.3-2.2-0.5-3-1
		c0.2-1.4,0.2-3.6,0.2-5.7V716c0-0.8-0.3-1.5-0.8-2c-0.5-0.6-1.4-0.8-2.5-0.8c-0.9,0-1.6,0.2-2.2,0.5c-0.6,0.3-1.3,0.9-1.9,1.7
		l0,1.1v2.1c0,2.2,0,4.2,0.2,5.6c-0.8,0.5-1.9,0.7-3,1c-0.8,0.2-1.5,0.2-2.1,0.2c-0.4,0-0.7-0.4-0.6-0.8c0.2-0.6,0.3-1.2,0.4-1.9
		c0.1-1,0.2-1.9,0.2-2.8v-3.1l-0.7-5.7c-0.1-0.5,0.4-1,0.9-1c0.8,0,1.5,0.1,2.3,0.2c1.1,0.1,2,0.4,2.6,0.7v0.4
		c1.3-0.8,2.9-1.2,4.9-1.2c1.4,0,2.7,0.3,3.8,0.9s2,1.4,2.6,2.3c0.6,0.9,0.9,1.9,0.9,2.8v3.6
		C1061.4,720.4,1061.5,721.4,1061.6,722.4z"/>
	<path class="st0" d="M1074.7,722c1.3,0,2.4-0.1,3.3-0.2c0.5-0.1,1-0.2,1.5-0.3c0.8-0.2,1.7,0.2,2,0.9c0,0,0,0,0,0
		c0.5,1,0,2.1-1.1,2.4c-1.5,0.3-3.6,0.5-6.3,0.5c-2.7,0-4.8-0.7-6.4-2.2s-2.3-3.4-2.3-5.7c0-1.7,0.4-3.1,1.3-4.2
		c0.9-1.1,2-1.9,3.3-2.5c1.4-0.5,2.8-0.8,4.3-0.8c3,0,5.2,0.8,6.7,2.4c1.4,1.5,2.1,3.5,2.2,6c0,0.4-0.3,0.7-0.7,0.7h-11.3
		c-0.5,0-0.9,0.6-0.6,1C1071.3,721.3,1072.7,721.9,1074.7,722z M1077.6,716.2c0.5,0,0.9-0.6,0.6-1c-0.3-0.5-0.7-1-1.2-1.3
		c-0.7-0.5-1.6-0.8-2.5-0.8c-0.9,0-1.8,0.3-2.6,0.8c-0.5,0.3-0.9,0.8-1.2,1.3c-0.3,0.5,0.1,1,0.6,1H1077.6z"/>
	<path class="st0" d="M1096.6,720.9c0.8,0.2,1.6,0.3,2.4,0.5c0.8,0.1,1.1,1,0.6,1.7c-0.3,0.4-0.7,0.8-1.1,1.2
		c-0.6,0.6-1.2,1-1.8,1.3c-0.6,0.3-1.3,0.4-1.9,0.1c-0.7-0.3-1.5-0.6-2.3-1.1c-0.8-0.4-1.4-0.9-1.9-1.3c-0.5-0.4-0.8-1-0.7-1.7
		l0.5-8.3c-0.8,0-1.4,0.1-1.9,0.1c-0.5,0-1-0.2-1.2-0.7c-0.3-0.6-0.5-1.3-0.6-2.1c-0.1-0.6,0.3-1.1,0.9-1.1c0.7,0,1.6-0.1,2.7-0.1
		l-0.1-3c0-0.7,0.5-1.3,1.2-1.2c0.7,0.1,1.5,0.2,2.4,0.3c0.8,0.1,1.5,0.3,2.1,0.5c0.6,0.2,1,0.9,0.8,1.5l-0.5,1.9
		c1.1,0,2.1,0.1,3.2,0.1c0.6,0,1.1,0.7,1,1.3c-0.2,1-0.4,1.7-0.8,2.4c-0.1,0.2-0.3,0.3-0.6,0.3c-0.7-0.1-1.9-0.1-3.6-0.2l-0.2,5.9
		C1095.2,720,1095.8,720.7,1096.6,720.9z"/>
	<g>
		<path class="st0" d="M836.2,622.1l0.7-2l2.1,0c17,0.2,30,1,38.7,2.4c1.3-2.8,2.2-5.9,2.7-9c-18.7-0.6-38.6-0.9-59.1-0.9
			c-16.7,0-29.1,0.3-36.9,0.8c0.6,2.9,1.5,5.7,2.8,8.4c7.5-0.9,18.4-1.5,32.4-1.7l3,0v12.2l-3,0c-12.4,0.1-21.4,0.3-27,0.4
			c0.9,8.5,1.4,25.3,1.4,50.9c9.7-0.3,22.7-0.5,38.8-0.5c16.2,0,29.3,0.2,38.9,0.5c0-25.7,0.5-42.4,1.4-50.9
			c-9.5-0.3-21.7-0.5-36.4-0.5h-4.2l1.4-4L836.2,622.1z M860.1,674.9l-3.1-0.1c-4.8-0.2-12.9-0.2-24-0.2c-11.1,0-19.2,0.1-24.1,0.2
			l-3.1,0.1v-13.4h54.3V674.9z M833,640.6c6.4,0,14.6,0.1,24.5,0.2l3.1,0l-0.2,3.1c-0.1,1.3-0.1,3.4-0.1,6.3v3h-54.7v-3
			c0-2.9,0-5-0.1-6.3l-0.2-3.1l3.1,0C818.4,640.6,826.7,640.6,833,640.6z"/>
	</g>
	<path class="st0" d="M901.8,681.5c0,1-0.1,1.7-0.1,2v0l11.6-3.5c-0.3-4.1-0.4-9.1-0.4-14.8v-34c0-1.4-0.9-2.7-2.2-3.1
		c-1.2-0.4-2.6-0.8-4.2-1.1c-1.4-0.3-2.7-0.5-3.9-0.7c-0.8-0.1-1.5,0.4-1.6,1.1c0,0.2-0.1,0.4,0,0.5l0.1,0.4l1.7,12.7
		c0,0.1,0,0.3,0,0.4v27.1C902.7,673.4,902.4,677.6,901.8,681.5z M988.7,665.5v-56c-7.5-0.4-17.2-0.6-29-0.6c-11.7,0-21.5,0.2-29,0.6
		c0.1,2.7,0.6,5.2,1.4,7.7c7.3-0.5,16.4-0.8,27.1-0.8c4,0,9.5,0.1,16.2,0.2l2.9,0.1v51.8c0,5.5-0.4,10.4-1.2,14.7v0.5
		c0,0.2,0.1,0.3,0.1,0.4h6.9c1.9-0.4,3.6-0.9,5-1.6C988.9,678,988.7,672.3,988.7,665.5z M945.5,634.2c-8.8,0-15.8,0.2-20.8,0.4
		c0.5,6.1,0.7,16.7,0.7,32.1c5-0.3,11.9-0.5,20.6-0.5c8.6,0,15.3,0.1,19.9,0.5v-6.9c0-11.6,0.2-19.9,0.6-25.1
		C961.7,634.4,954.6,634.2,945.5,634.2z M955.8,659.7h-20.5V641h20.5V659.7z M908.6,605.1L903,613l14.7,6.3l3.7-4.5L908.6,605.1z"/>
	<path class="st0" d="M1026,659.5v-42.1l2.9-0.1c8.3-0.2,18.3-0.3,29.5-0.3c11.2,0,21.1,0.1,29.5,0.3l2.9,0.1c0,0,1.1,62.7,0.3,66.1
		c1.9-0.1,2.1-0.4,4.1-0.8c2.5-0.5,4.1-0.8,5.9-1.6c-0.4-4.5-0.1-10.6-0.1-17.4V611c-8.1-0.5-22.4-0.7-42.5-0.7
		c-20.1,0-34.4,0.2-42.6,0.7v72.5c1.6-0.4,3.2-0.8,4.8-1.4c2.1-0.8,3.8-1.7,5.3-2.8v-17.1"/>
	<g>
		<polygon class="st0" points="1050.1,666.3 1027.6,627.9 1036.7,627.9 1059.3,666.3 		"/>
		<polygon class="st0" points="1036.7,666.3 1059.3,627.9 1050.1,627.9 1027.6,666.3 		"/>
	</g>
	<g>
		<polygon class="st0" points="1081,666.3 1058.5,627.9 1067.6,627.9 1090.1,666.3 		"/>
		<polygon class="st0" points="1067.6,666.3 1090.1,627.9 1081,627.9 1058.5,666.3 		"/>
	</g>
	<polygon class="st0" points="784.5,612.2 880.5,612.2 880.9,612.2 877.8,622.5 787.8,621.6 787.3,621.6 784,612.2 	"/>
	<path class="st0" d="M913.3,628.4v55.6l-11.6,0c0,0-0.5-45.6-0.7-55.7c0-0.4,0-0.7,0-1c0-1.2,0-1.9,0-1.9L913.3,628.4z"/>
	<polygon class="st0" points="930.8,609.5 930.8,617.4 978.4,616.8 988.7,609.5 	"/>
	<polygon class="st0" points="924.7,634.7 925.4,666.8 935.4,659.7 935.4,634.3 	"/>
	<polygon class="st0" points="966.6,634.7 966,666.8 925.4,666.8 935.4,659.7 955.8,659.7 955.8,634.2 	"/>
	<polygon class="st0" points="989.4,684.1 977.2,684.1 977.2,683.2 978.4,616.8 988.7,609.5 	"/>
	<polygon class="st0" points="1016,610.3 1101.1,610.3 1101.1,617.4 1026,617.4 	"/>
	<rect x="1016" y="610.3" class="st0" width="10.2" height="73.8"/>
	<rect x="1091" y="610.3" class="st0" width="10.2" height="73.8"/>
</g>
</svg>
